<svg xmlns="http://www.w3.org/2000/svg" width="20" height="20" viewBox="0 0 20 20"><path fill="currentColor" fill-rule="evenodd" d="M16.432 15C14.387 9.893 12 8.547 12 6V3h.5a.5.5 0 0 0 .5-.5v-1a.5.5 0 0 0-.5-.5h-5a.5.5 0 0 0-.5.5v1a.5.5 0 0 0 .5.5H8v3c0 2.547-2.387 3.893-4.432 9c-.651 1.625-2.323 4 6.432 4s7.083-2.375 6.432-4m-1.617 1.751c-.702.21-2.099.449-4.815.449s-4.113-.239-4.815-.449c-.249-.074-.346-.363-.258-.628c.22-.67.635-1.828 1.411-3.121c1.896-3.159 3.863.497 5.5.497s1.188-1.561 1.824-.497a15.4 15.4 0 0 1 1.411 3.121c.088.265-.009.553-.258.628" clip-rule="evenodd"/></svg>